<svg xmlns="http://www.w3.org/2000/svg" xmlns:xlink="http://www.w3.org/1999/xlink" viewBox="0 0 800 724.66443"><defs><clipPath id="a"><path d="M435.14839,167.11547C566.5828,320.29091,586.06161,133.6288,699.99308,210.60015c36.56505,24.7031,2.17861,21.2174-23.7169,13.83258-15.72316-4.48389-33.59978-1.97645-63.39761,16.436-40.35742,24.93731-63.09566,35.94015-109.77637,33.22523C390.12263,267.5231,313.59627,171.06839,435.14839,167.11547Z" style="fill:none"/></clipPath><clipPath id="b"><path d="M205.23138,370.02305s27.27369-39.53,80.17777-63.74035,130.0185,4.4834,130.0185,4.4834,81.59781,38.55721,130.01849,30.4871S612.69709,305.386,612.69709,305.386s23.31366-21.5203,18.83026,5.38008-70.974,59.31653-104.97966,61.042S402.87414,357.39342,367.007,367.25689s-61.8105,67.02942-61.8105,67.02942l-102.2818,63.88576Z" style="fill:none"/></clipPath><clipPath id="c"><path d="M260.11639,271.14115s58.421,29.38519,105.856,5.6677S451.27476,189.07521,427.77793,114.3c-12.063-38.38856-29.29159-89.18632-1.74876-98.80445C442.7188,9.66744,452.93651,2.08129,429.219.10483S385.37071,24.45331,385.37071,49.159s18.50714,85.74684-.43719,120.66384c-22.29658,41.09566-47.21629,56.61582-47.21629,56.61582Z" style="fill:none"/></clipPath></defs><title>404_illustration</title><path d="M279.44974,189.94543l3.62445,2.09258c13.36329,7.7153,11.67186,21.31689-3.75874,30.22575l-99.827,57.63515c-15.4306,8.90886-38.98924,9.88541-52.35253,2.17011l-3.62445-2.09258c-13.36329-7.7153-11.67186-21.31689,3.75874-30.22575l99.827-57.63515C242.52781,183.20668,266.08645,182.23013,279.44974,189.94543Z" style="fill:#dcf4d7"/><path d="M731.58749,585.47543l3.62445,2.09258c13.3633,7.7153,11.67186,21.31689-3.75874,30.22575l-99.827,57.63515c-15.4306,8.90886-38.98923,9.88541-52.35253,2.17011l-3.62445-2.09258c-13.36329-7.7153-11.67186-21.31688,3.75874-30.22575l99.827-57.63514C694.66556,578.73668,718.2242,577.76013,731.58749,585.47543Z" style="fill:#dcf4d7"/><path d="M12.93955,435.49893c14.36,8.29074,37.8578,8.29105,52.21746.0005l7.56782-4.36928c14.35956-8.2905,37.85728-8.29036,52.21736.00044l.00009.00005c14.36,8.29074,14.36033,21.85722.00077,30.14771L87.11248,483.11984c-14.35956,8.2905-14.35921,21.857.00077,30.14771s37.85789,8.291,52.21745.0005l13.85341-7.99827,6.3939-3.69152a31.44649,31.44649,0,0,0-2.99258,1.96363c14.45507-6.50961,35.53876-5.93742,48.81624,1.72833s14.26853,19.83843,2.99344,28.184a38.0489,38.0489,0,0,0,3.40112-1.72777l-6.3939,3.69152L149.9887,567.41106c-14.35956,8.29049-14.35922,21.857.00076,30.14771l.0001,0c14.36,8.29074,37.8578,8.29094,52.21736.00044l41.62688-23.95632c14.35965-8.29056,37.85748-8.29036,52.21745.00038l.0001.00006c13.76756,7.9487,14.32658,20.74364,1.69564,29.09232-.54369.35928-1.10247.71336-1.695,1.05544l-70.49566,40.70069c-12.63114,8.34868-12.07193,21.14362,1.69563,29.09232l.0001.00006c14.36,8.29074,37.8577,8.29088,52.21726.00039l42.62594-24.6101c-.59249.34208-1.15128.69615-1.69477,1.05544l56.64226-32.70242c14.35965-8.29056,37.85747-8.29024,52.21745.00049,13.76756,7.94871,14.32678,20.74364,1.69564,29.09233-.54349.35928-1.10227.71336-1.69477,1.05544l-10.28665,5.939c-12.63124,8.34862-12.07193,21.14362,1.69544,29.09221l.00019.00011c14.36,8.29074,37.8577,8.29088,52.21726.00039L752.47412,521.048c14.35956-8.29049,14.35931-21.85691-.00066-30.14765l-.0002-.00011c-13.76737-7.94859-35.92894-8.27151-50.38919-.97886l-15.46918,8.93113c-.5925.34208-1.20578.6647-1.82817.97854-14.46025,7.29253-36.62182,6.96973-50.38938-.979-14.36-8.29074-14.36033-21.85732-.00077-30.14782l72.93015-42.1832c14.35956-8.2905,14.35932-21.85691-.00066-30.14765l-.0001-.00006c-13.76756-7.9487-35.92914-8.27151-50.38938-.979L629.06676,411.485c-.5925.34208-1.20578.66469-1.828.97854l-.36991.21356c.09312-.05376.17859-.11012.27043-.16428-14.46221,7.24127-36.5537,6.90234-50.2899-1.02826l-.0001-.00006c-14.267-8.237-14.35287-21.67918-.27119-29.98343-.65679.32884-1.30369.66758-1.92756,1.02777l55.41374-31.99314c14.35956-8.29049,14.35921-21.857-.00077-30.1477l-.00009-.00006c-14.36-8.29074-37.8578-8.29093-52.21736-.00044l-39.4289,22.76428c-14.35966,8.29056-37.85748,8.29036-52.21746-.00038s-14.36042-21.85727-.00076-30.14782l80.98913-46.75909c14.35955-8.2905,14.35921-21.857-.00087-30.14777s-37.8578-8.29093-52.21736-.00044L446.23561,275.78,379.0999,314.54083c-14.35966,8.29055-37.85748,8.29035-52.21746-.00039l-.0001,0c-14.36008-8.2908-14.36032-21.85722-.00067-30.14777l-3.65066,2.10771c14.35956-8.29049,14.35912-21.857-.00086-30.14776s-37.8579-8.291-52.21746-.0005l-258.074,148.9991C-1.421,413.64172-1.42043,427.20819,12.93955,435.49893Z" style="fill:#dcf4d7"/><ellipse cx="763.09491" cy="364.19002" rx="36.90509" ry="21.30716" style="fill:#dcf4d7"/><ellipse cx="371.10137" cy="703.35726" rx="36.90509" ry="21.30716" style="fill:#dcf4d7"/><ellipse cx="39.78082" cy="541.37897" rx="36.90509" ry="21.30716" style="fill:#dcf4d7"/><ellipse cx="36.90509" cy="332.07123" rx="36.90509" ry="21.30716" style="fill:#dcf4d7"/><path d="M704.411,460.53552l.47707-11.9591s-19.12715,3.85166-18.24677,4.622S704.411,460.53552,704.411,460.53552Z" style="fill:#bec8ce"/><polygon points="187.032 534.732 187.098 521.704 201.432 528.158 187.032 534.732" style="fill:#bec8ce"/><path d="M390.42708,649.1361,698.841,471.07323c3.026-1.74706,5.20469-6.38372,5.58711-10.90658.33509-3.96308-.709-7.83878-3.77061-9.60651l-179.164-93.79825c-6.556-3.785-16.56495-4.19989-22.2426-.922L187.103,523.866c0,2.96469-1.225,19.09361,5.331,22.87857L368.18448,648.2141C374.74044,651.99926,384.74943,652.41419,390.42708,649.1361Z" style="fill:#bec8ce"/><path d="M391.32376,632.60034l309.735-178.82563c2.56926-1.48345,3.83428-3.47683,3.84637-5.56717.01475-2.5486-1.833-5.24132-5.45024-7.32966L522.9516,338.97371c-6.584-3.80138-16.63591-4.21808-22.33788-.926l-309.735,178.82563c-5.70177,3.29192-4.98019,9.09546,1.60389,12.89664L368.98589,631.67439C375.56993,635.47557,385.6218,635.89227,391.32376,632.60034Z" style="fill:#eaf1f4"/><path d="M190.87867,516.87338,492.27794,329.2536c5.70176-3.29193,10.367-12.20548,10.367-19.808l9.29179-202.48993c0-7.60255-13.957-12.44788-19.65878-9.156L182.54285,276.6253c-5.70193,3.29192-10.367,12.20568-10.367,19.808V500.24208C172.27957,511.019,187.103,518.92487,190.87867,516.87338Z" style="fill:#bec8ce"/><path d="M193.34861,515.663,503.08367,336.83732c5.70176-3.29192,10.367-12.20548,10.367-19.808V113.22074c0-7.60255-4.66523-11.12927-10.367-7.83734L193.34861,284.209c-5.702,3.29193-10.367,12.20568-10.367,19.808V507.8256C182.98159,515.42815,187.64665,518.95487,193.34861,515.663Z" style="fill:#dce5ea"/><path d="M212.68565,485.73911l271.06077-156.497c4.64139-2.6797,8.439-9.93547,8.439-16.12406V148.43039c0-6.18839-3.79757-9.0594-8.439-6.37971l-271.06077,156.497c-4.64138,2.6799-8.439,9.93567-8.439,16.12425V479.35941C204.2467,485.548,208.04427,488.41881,212.68565,485.73911Z" style="fill:#c93a3a"/><path d="M343.28116,211.04029c0,3.14708,2.20951,4.42282,4.93488,2.84918a10.90765,10.90765,0,0,0,4.935-8.54754c0-3.14708-2.20948-4.42282-4.935-2.84918A10.90832,10.90832,0,0,0,343.28116,211.04029Z" style="fill:#52707f"/><ellipse cx="348.21604" cy="208.19111" rx="3.39675" ry="1.9611" transform="translate(-6.18712 405.66605) rotate(-60.00106)" style="fill:#afd0ec"/><path d="M332.54976,217.23609c0,1.53177,1.0752,2.15261,2.40183,1.38673a5.30918,5.30918,0,0,0,2.40183-4.16018c0-1.53157-1.07541-2.15242-2.40183-1.38653A5.30794,5.30794,0,0,0,332.54976,217.23609Z" style="fill:#52707f"/><path d="M229.77311,530.85231l11.79812,6.81165a1.65639,1.65639,0,0,0,1.4969,0l10.26984-5.9293a.45636.45636,0,0,0,0-.86423l-11.79813-6.81165a1.65639,1.65639,0,0,0-1.4969,0l-10.26984,5.9293A.45636.45636,0,0,0,229.77311,530.85231Z" style="fill:#b6c3cc"/><path d="M258.92934,528.5065l10.27056-5.92972a.45637.45637,0,0,0,0-.86424l-11.79813-6.81165a1.65642,1.65642,0,0,0-1.4969,0l-10.27056,5.92972a.45637.45637,0,0,0,0,.86424l11.79813,6.81164A1.65639,1.65639,0,0,0,258.92934,528.5065Z" style="fill:#b6c3cc"/><path d="M274.79054,519.349l10.27057-5.92972a.45637.45637,0,0,0,0-.86424L273.263,505.74342a1.65639,1.65639,0,0,0-1.4969,0l-10.27056,5.92972a.45637.45637,0,0,0,0,.86424l11.79813,6.81165A1.65642,1.65642,0,0,0,274.79054,519.349Z" style="fill:#b6c3cc"/><path d="M300.92228,503.39759l-11.79812-6.81165a1.65639,1.65639,0,0,0-1.4969,0l-10.26984,5.9293a.45636.45636,0,0,0,0,.86423l11.79813,6.81165a1.65639,1.65639,0,0,0,1.4969,0l10.26984-5.9293A.45636.45636,0,0,0,300.92228,503.39759Z" style="fill:#b6c3cc"/><path d="M303.48846,487.42845l-10.26984,5.9293a.45637.45637,0,0,0,0,.86424l11.79813,6.81164a1.65639,1.65639,0,0,0,1.4969,0l10.26984-5.9293a.45637.45637,0,0,0,0-.86424l-11.79813-6.81164A1.65639,1.65639,0,0,0,303.48846,487.42845Z" style="fill:#b6c3cc"/><path d="M319.34966,478.271l-10.26984,5.9293a.45636.45636,0,0,0,0,.86423l11.79813,6.81165a1.65642,1.65642,0,0,0,1.4969,0l10.26984-5.9293a.45636.45636,0,0,0,0-.86423L320.84656,478.271A1.65639,1.65639,0,0,0,319.34966,478.271Z" style="fill:#b6c3cc"/><path d="M338.23607,482.71869l10.26984-5.92929a.45637.45637,0,0,0,0-.86424l-11.79813-6.81165a1.65642,1.65642,0,0,0-1.4969,0L324.941,475.0428a.45637.45637,0,0,0,0,.86424l11.79813,6.81164A1.65636,1.65636,0,0,0,338.23607,482.71869Z" style="fill:#b6c3cc"/><path d="M351.07206,459.956l-10.26984,5.92929a.45637.45637,0,0,0,0,.86424l11.79812,6.81165a1.65642,1.65642,0,0,0,1.4969,0l10.26984-5.9293a.45636.45636,0,0,0,0-.86423L352.569,459.956A1.65639,1.65639,0,0,0,351.07206,459.956Z" style="fill:#b6c3cc"/><path d="M366.93326,450.79855l-10.26984,5.9293a.45636.45636,0,0,0,0,.86423l11.79813,6.81165a1.65637,1.65637,0,0,0,1.49689,0l10.26984-5.92929a.45637.45637,0,0,0,0-.86424l-11.79813-6.81165A1.65642,1.65642,0,0,0,366.93326,450.79855Z" style="fill:#b6c3cc"/><path d="M382.79446,441.64107l-10.26983,5.9293a.45637.45637,0,0,0,0,.86424l11.79813,6.81165a1.65642,1.65642,0,0,0,1.4969,0l10.26983-5.9293a.45637.45637,0,0,0,0-.86424l-11.79813-6.81164A1.65639,1.65639,0,0,0,382.79446,441.64107Z" style="fill:#b6c3cc"/><path d="M398.65566,432.4836l-10.26983,5.9293a.45636.45636,0,0,0,0,.86423l11.79813,6.81165a1.65639,1.65639,0,0,0,1.4969,0l10.26983-5.9293a.45636.45636,0,0,0,0-.86423l-11.79813-6.81165A1.65639,1.65639,0,0,0,398.65566,432.4836Z" style="fill:#b6c3cc"/><path d="M414.5176,423.3257,404.247,429.25542a.45637.45637,0,0,0,0,.86424l11.79813,6.81164a1.65639,1.65639,0,0,0,1.4969,0l10.27057-5.92972a.45637.45637,0,0,0,0-.86424l-11.79812-6.81165A1.65642,1.65642,0,0,0,414.5176,423.3257Z" style="fill:#b6c3cc"/><path d="M430.3788,414.16823,420.10823,420.098a.45636.45636,0,0,0,0,.86423l11.79813,6.81165a1.65639,1.65639,0,0,0,1.4969,0l10.27057-5.92972a.45636.45636,0,0,0,0-.86423l-11.79813-6.81165A1.65636,1.65636,0,0,0,430.3788,414.16823Z" style="fill:#b6c3cc"/><path d="M475.07173,403.71653l10.86844-6.2749a.45637.45637,0,0,0,0-.86424L474.142,389.76574a1.65642,1.65642,0,0,0-1.4969,0l-10.86844,6.27491a.45636.45636,0,0,0,0,.86423l11.79813,6.81165A1.65639,1.65639,0,0,0,475.07173,403.71653Z" style="fill:#b6c3cc"/><path d="M522.44919,361.01132,511.18972,367.512a.45637.45637,0,0,0,0,.86424l11.79813,6.81165a1.65642,1.65642,0,0,0,1.4969,0l11.25947-6.50067a.45636.45636,0,0,0,0-.86423l-11.79813-6.81165A1.65639,1.65639,0,0,0,522.44919,361.01132Z" style="fill:#b6c3cc"/><path d="M491.94317,413.45725l10.86844-6.2749a.45637.45637,0,0,0,0-.86424l-11.79776-6.81143a1.65639,1.65639,0,0,0-1.4969,0l-10.86845,6.27491a.45636.45636,0,0,0,0,.86423l11.79776,6.81144A1.65639,1.65639,0,0,0,491.94317,413.45725Z" style="fill:#b6c3cc"/><path d="M508.815,423.19818l10.86844-6.2749a.45636.45636,0,0,0,0-.86423l-11.79813-6.81165a1.65639,1.65639,0,0,0-1.4969,0l-10.86844,6.2749a.45636.45636,0,0,0,0,.86423l11.79813,6.81165A1.65636,1.65636,0,0,0,508.815,423.19818Z" style="fill:#b6c3cc"/><path d="M539.321,370.75225l-11.25947,6.50066a.45637.45637,0,0,0,0,.86424l28.66957,16.55237a1.65639,1.65639,0,0,0,1.4969,0l11.25947-6.50066a.45637.45637,0,0,0,0-.86424l-28.66957-16.55237A1.65642,1.65642,0,0,0,539.321,370.75225Z" style="fill:#b6c3cc"/><path d="M525.68677,432.93912l10.86845-6.27491a.45636.45636,0,0,0,0-.86423l-11.79813-6.81165a1.65639,1.65639,0,0,0-1.4969,0l-10.86844,6.2749a.45637.45637,0,0,0,0,.86424l11.79812,6.81164A1.65639,1.65639,0,0,0,525.68677,432.93912Z" style="fill:#b6c3cc"/><path d="M556.59762,419.22279l-27.33409,15.78136a.45637.45637,0,0,0,0,.86424L541.06168,442.68a1.65642,1.65642,0,0,0,1.4969,0l27.33409-15.78136a.45637.45637,0,0,0,0-.86424l-11.79813-6.81164A1.65639,1.65639,0,0,0,556.59762,419.22279Z" style="fill:#b6c3cc"/><path d="M573.06327,409.71634l-10.86844,6.2749a.45637.45637,0,0,0,0,.86424l11.79813,6.81164a1.65639,1.65639,0,0,0,1.4969,0l10.86844-6.27491a.45636.45636,0,0,0,0-.86423l-11.79813-6.81165A1.65639,1.65639,0,0,0,573.06327,409.71634Z" style="fill:#b6c3cc"/><path d="M573.06423,390.2339l-11.25947,6.50067a.45636.45636,0,0,0,0,.86423l28.66994,16.55258a1.65639,1.65639,0,0,0,1.4969,0l11.25947-6.50067a.45636.45636,0,0,0,0-.86423l-28.66993-16.55258A1.65639,1.65639,0,0,0,573.06423,390.2339Z" style="fill:#b6c3cc"/><path d="M452.84439,401.1977l-16.875,9.74277a.45637.45637,0,0,0,0,.86424l11.79813,6.81164a1.65639,1.65639,0,0,0,1.4969,0l16.875-9.74277a.45637.45637,0,0,0,0-.86424l-11.79812-6.81165A1.65642,1.65642,0,0,0,452.84439,401.1977Z" style="fill:#b6c3cc"/><path d="M293.3686,527.24017l-11.79777-6.81143a1.65639,1.65639,0,0,0-1.4969,0l-10.27056,5.92972a.45637.45637,0,0,0,0,.86424l11.79776,6.81144a1.65642,1.65642,0,0,0,1.4969,0l10.27057-5.92972A.45637.45637,0,0,0,293.3686,527.24017Z" style="fill:#b6c3cc"/><path d="M285.66532,518.06478l11.79776,6.81144a1.65642,1.65642,0,0,0,1.4969,0l10.26984-5.9293a.45636.45636,0,0,0,0-.86423L297.432,511.27126a1.65639,1.65639,0,0,0-1.4969,0l-10.26984,5.9293A.45636.45636,0,0,0,285.66532,518.06478Z" style="fill:#b6c3cc"/><path d="M325.091,508.92522l-11.79776-6.81144a1.65642,1.65642,0,0,0-1.4969,0l-10.26984,5.9293a.45637.45637,0,0,0,0,.86424l11.79776,6.81143a1.65636,1.65636,0,0,0,1.4969,0l10.26984-5.92929A.45637.45637,0,0,0,325.091,508.92522Z" style="fill:#b6c3cc"/><path d="M317.38772,499.74983l11.79777,6.81144a1.65642,1.65642,0,0,0,1.4969,0l10.26983-5.9293a.45636.45636,0,0,0,0-.86423l-11.79776-6.81144a1.65639,1.65639,0,0,0-1.4969,0l-10.26984,5.92929A.45637.45637,0,0,0,317.38772,499.74983Z" style="fill:#b6c3cc"/><path d="M333.24892,490.59235l11.79777,6.81144a1.65639,1.65639,0,0,0,1.4969,0l10.26983-5.92929a.45637.45637,0,0,0,0-.86424l-11.79776-6.81144a1.65642,1.65642,0,0,0-1.4969,0l-10.26984,5.9293A.45636.45636,0,0,0,333.24892,490.59235Z" style="fill:#b6c3cc"/><path d="M349.11012,481.43488l11.79777,6.81144a1.65642,1.65642,0,0,0,1.4969,0l10.26983-5.9293a.45637.45637,0,0,0,0-.86424l-11.79776-6.81143a1.65636,1.65636,0,0,0-1.4969,0l-10.26984,5.92929A.45637.45637,0,0,0,349.11012,481.43488Z" style="fill:#b6c3cc"/><path d="M364.97133,472.2774l11.79776,6.81144a1.65639,1.65639,0,0,0,1.4969,0l10.26984-5.9293a.45636.45636,0,0,0,0-.86423L376.738,465.48388a1.65642,1.65642,0,0,0-1.4969,0l-10.26984,5.9293A.45636.45636,0,0,0,364.97133,472.2774Z" style="fill:#b6c3cc"/><path d="M380.83253,463.11993l11.79776,6.81143a1.65639,1.65639,0,0,0,1.4969,0l10.26984-5.9293a.45637.45637,0,0,0,0-.86424l-11.79776-6.81143a1.65639,1.65639,0,0,0-1.4969,0l-10.26984,5.9293A.45637.45637,0,0,0,380.83253,463.11993Z" style="fill:#b6c3cc"/><path d="M409.98839,460.7739l10.26984-5.9293a.45636.45636,0,0,0,0-.86423l-11.79777-6.81144a1.65639,1.65639,0,0,0-1.4969,0l-10.26983,5.9293a.45636.45636,0,0,0,0,.86423l11.79776,6.81144A1.65642,1.65642,0,0,0,409.98839,460.7739Z" style="fill:#b6c3cc"/><path d="M425.84959,451.61642l10.27057-5.92972a.45636.45636,0,0,0,0-.86423L424.32238,438.011a1.65642,1.65642,0,0,0-1.4969,0l-10.27057,5.92972a.45637.45637,0,0,0,0,.86424l11.79776,6.81143A1.65636,1.65636,0,0,0,425.84959,451.61642Z" style="fill:#b6c3cc"/><path d="M441.71079,442.459l10.27057-5.92972a.45637.45637,0,0,0,0-.86424l-11.79776-6.81143a1.65636,1.65636,0,0,0-1.4969,0l-10.27057,5.92971a.45637.45637,0,0,0,0,.86424l11.79776,6.81144A1.65642,1.65642,0,0,0,441.71079,442.459Z" style="fill:#b6c3cc"/><path d="M454.54788,419.69607l-10.26984,5.9293a.45636.45636,0,0,0,0,.86423l11.79777,6.81144a1.65639,1.65639,0,0,0,1.4969,0l10.26983-5.9293a.45636.45636,0,0,0,0-.86423l-11.79776-6.81144A1.65639,1.65639,0,0,0,454.54788,419.69607Z" style="fill:#b6c3cc"/><path d="M476.57059,423.19729l16.00676,9.2415a1.65639,1.65639,0,0,0,1.4969,0l6.41947-3.70628a.45637.45637,0,0,0,0-.86424l-29.30181-16.9174a1.65642,1.65642,0,0,0-1.4969,0l-10.26984,5.9293a.45637.45637,0,0,0,0,.86424l11.79813,6.81164a1.65639,1.65639,0,0,0,1.4969,0l2.35348-1.35879A1.65376,1.65376,0,0,1,476.57059,423.19729Z" style="fill:#b6c3cc"/><path d="M259.90412,547.40786l18.08971-10.44411a.45636.45636,0,0,0,0-.86423l-11.79813-6.81165a1.65639,1.65639,0,0,0-1.4969,0L246.60907,539.732a.45637.45637,0,0,0,0,.86424l11.79813,6.81164A1.65639,1.65639,0,0,0,259.90412,547.40786Z" style="fill:#b6c3cc"/><path d="M313.61621,555.7158l10.26984-5.9293a.45636.45636,0,0,0,0-.86423l-11.79813-6.81165a1.65639,1.65639,0,0,0-1.4969,0l-10.26984,5.92929a.45637.45637,0,0,0,0,.86424l11.79813,6.81165A1.6564,1.6564,0,0,0,313.61621,555.7158Z" style="fill:#b6c3cc"/><path d="M329.47742,546.55832l10.26983-5.92929a.45637.45637,0,0,0,0-.86424l-11.79813-6.81165a1.65642,1.65642,0,0,0-1.4969,0l-10.26983,5.9293a.45636.45636,0,0,0,0,.86423l11.79813,6.81165A1.65636,1.65636,0,0,0,329.47742,546.55832Z" style="fill:#b6c3cc"/><path d="M342.3134,523.79566,332.04357,529.725a.45637.45637,0,0,0,0,.86424l11.79813,6.81165a1.65642,1.65642,0,0,0,1.4969,0l10.26983-5.9293a.45636.45636,0,0,0,0-.86423l-11.79813-6.81165A1.65636,1.65636,0,0,0,342.3134,523.79566Z" style="fill:#b6c3cc"/><path d="M361.19982,528.24337l10.26984-5.92929a.45637.45637,0,0,0,0-.86424l-11.79813-6.81165a1.6564,1.6564,0,0,0-1.49689,0l-10.26984,5.9293a.45636.45636,0,0,0,0,.86423l11.79813,6.81165A1.65639,1.65639,0,0,0,361.19982,528.24337Z" style="fill:#b6c3cc"/><path d="M377.061,519.0859l10.26984-5.9293a.45637.45637,0,0,0,0-.86424l-11.79812-6.81164a1.65639,1.65639,0,0,0-1.4969,0L363.766,511.41a.45637.45637,0,0,0,0,.86424l11.79813,6.81165A1.65642,1.65642,0,0,0,377.061,519.0859Z" style="fill:#b6c3cc"/><path d="M392.92222,509.92842l10.26984-5.9293a.45636.45636,0,0,0,0-.86423l-11.79813-6.81165a1.65639,1.65639,0,0,0-1.4969,0l-10.26984,5.9293a.45636.45636,0,0,0,0,.86423l11.79813,6.81165A1.65639,1.65639,0,0,0,392.92222,509.92842Z" style="fill:#b6c3cc"/><path d="M408.78342,500.771l10.26984-5.9293a.45637.45637,0,0,0,0-.86424l-11.79813-6.81164a1.65639,1.65639,0,0,0-1.4969,0l-10.26984,5.9293a.45637.45637,0,0,0,0,.86424l11.79813,6.81164A1.65639,1.65639,0,0,0,408.78342,500.771Z" style="fill:#b6c3cc"/><path d="M424.64462,491.61347l10.27057-5.92972a.45637.45637,0,0,0,0-.86424L423.117,478.00787a1.65636,1.65636,0,0,0-1.4969,0l-10.27057,5.92972a.45636.45636,0,0,0,0,.86423l11.79813,6.81165A1.65642,1.65642,0,0,0,424.64462,491.61347Z" style="fill:#b6c3cc"/><path d="M440.50582,482.456l10.27057-5.92972a.45636.45636,0,0,0,0-.86423l-11.79813-6.81165a1.65642,1.65642,0,0,0-1.4969,0l-10.27057,5.92972a.45636.45636,0,0,0,0,.86423l11.79812,6.81165A1.65636,1.65636,0,0,0,440.50582,482.456Z" style="fill:#b6c3cc"/><path d="M456.36776,473.2981l10.26983-5.9293a.45637.45637,0,0,0,0-.86424l-11.79813-6.81164a1.65639,1.65639,0,0,0-1.4969,0l-10.26983,5.9293a.45637.45637,0,0,0,0,.86424l11.79813,6.81164A1.65639,1.65639,0,0,0,456.36776,473.2981Z" style="fill:#b6c3cc"/><path d="M472.229,464.14062l10.26983-5.9293a.45636.45636,0,0,0,0-.86423l-11.79813-6.81165a1.65639,1.65639,0,0,0-1.4969,0l-10.26983,5.9293a.45636.45636,0,0,0,0,.86423l11.79813,6.81165A1.65639,1.65639,0,0,0,472.229,464.14062Z" style="fill:#b6c3cc"/><path d="M488.09016,454.98315,517.04685,438.265a.45636.45636,0,0,0,0-.86423L505.2487,430.5891a1.65639,1.65639,0,0,0-1.4969,0l-28.95669,16.71816a.45637.45637,0,0,0,0,.86424l11.79813,6.81164A1.65639,1.65639,0,0,0,488.09016,454.98315Z" style="fill:#b6c3cc"/><path d="M280.66553,560.235l11.79813,6.81165a1.65636,1.65636,0,0,0,1.4969,0l14.55143-8.40128a.45636.45636,0,0,0,0-.86423l-11.79813-6.81165a1.65639,1.65639,0,0,0-1.4969,0l-14.55143,8.40128A.45636.45636,0,0,0,280.66553,560.235Z" style="fill:#b6c3cc"/><path d="M316.20809,558.49167,297.67546,569.1915a.45636.45636,0,0,0,0,.86423l11.79813,6.81165a1.65639,1.65639,0,0,0,1.4969,0l18.53263-10.69982a.45637.45637,0,0,0,0-.86424L317.705,558.49168A1.65642,1.65642,0,0,0,316.20809,558.49167Z" style="fill:#b6c3cc"/><path d="M336.55773,546.74279l-14.70054,8.48737a.45636.45636,0,0,0,0,.86423l11.79813,6.81165a1.65639,1.65639,0,0,0,1.4969,0l14.70054-8.48736a.45637.45637,0,0,0,0-.86424l-11.79813-6.81165A1.65642,1.65642,0,0,0,336.55773,546.74279Z" style="fill:#b6c3cc"/><path d="M359.00577,533.7824,341.913,543.65091a.45637.45637,0,0,0,0,.86424l11.79813,6.81165a1.65642,1.65642,0,0,0,1.4969,0l17.09277-9.86852a.45636.45636,0,0,0,0-.86423l-11.79813-6.81165A1.65636,1.65636,0,0,0,359.00577,533.7824Z" style="fill:#b6c3cc"/><path d="M377.44561,538.488l88.39544-51.03518a.45636.45636,0,0,0,0-.86423l-11.79813-6.81165a1.65639,1.65639,0,0,0-1.4969,0l-88.39544,51.03517a.45637.45637,0,0,0,0,.86424l11.79813,6.81164A1.65639,1.65639,0,0,0,377.44561,538.488Z" style="fill:#b6c3cc"/><path d="M477.03691,465.637l-18.53263,10.69982a.45637.45637,0,0,0,0,.86424l11.79813,6.81165a1.65642,1.65642,0,0,0,1.4969,0L490.332,473.31293a.45636.45636,0,0,0,0-.86423l-11.79813-6.81165A1.65639,1.65639,0,0,0,477.03691,465.637Z" style="fill:#b6c3cc"/><path d="M497.38655,453.88816,482.686,462.37552a.45637.45637,0,0,0,0,.86424l11.79812,6.81165a1.65642,1.65642,0,0,0,1.4969,0l14.70054-8.48737a.45636.45636,0,0,0,0-.86423l-11.79813-6.81165A1.65639,1.65639,0,0,0,497.38655,453.88816Z" style="fill:#b6c3cc"/><path d="M521.33294,440.06269l-17.46114,10.0812a.45637.45637,0,0,0,0,.86424L515.67,457.81978a1.65642,1.65642,0,0,0,1.4969,0l17.46114-10.0812a.45637.45637,0,0,0,0-.86424l-11.79813-6.81164A1.65639,1.65639,0,0,0,521.33294,440.06269Z" style="fill:#b6c3cc"/><path d="M313.93874,535.00622l-11.79812-6.81165a1.65642,1.65642,0,0,0-1.4969,0l-10.26984,5.9293a.45637.45637,0,0,0,0,.86424l11.79813,6.81164a1.65636,1.65636,0,0,0,1.4969,0l10.26984-5.92929A.45637.45637,0,0,0,313.93874,535.00622Z" style="fill:#b6c3cc"/><path d="M329.79994,525.84875l-11.79812-6.81165a1.65639,1.65639,0,0,0-1.4969,0l-10.26984,5.92929a.45637.45637,0,0,0,0,.86424l11.79813,6.81165a1.65642,1.65642,0,0,0,1.4969,0L329.8,526.713A.45636.45636,0,0,0,329.79994,525.84875Z" style="fill:#b6c3cc"/><path d="M335.39133,523.4848l10.26984-5.92929a.45637.45637,0,0,0,0-.86424L333.863,509.87962a1.65642,1.65642,0,0,0-1.4969,0l-10.26984,5.9293a.45636.45636,0,0,0,0,.86423l11.79813,6.81165A1.65639,1.65639,0,0,0,335.39133,523.4848Z" style="fill:#b6c3cc"/><path d="M348.22805,500.72171l-10.27057,5.92972a.45637.45637,0,0,0,0,.86424l11.79813,6.81165a1.65642,1.65642,0,0,0,1.4969,0l10.27057-5.92972a.45637.45637,0,0,0,0-.86424L349.725,500.72173A1.65639,1.65639,0,0,0,348.22805,500.72171Z" style="fill:#b6c3cc"/><path d="M364.08925,491.56424,353.81868,497.494a.45636.45636,0,0,0,0,.86423l11.79813,6.81165a1.65639,1.65639,0,0,0,1.4969,0l10.27057-5.92972a.45636.45636,0,0,0,0-.86423l-11.79813-6.81165A1.65639,1.65639,0,0,0,364.08925,491.56424Z" style="fill:#b6c3cc"/><path d="M379.95045,482.40676l-10.27057,5.92972a.45637.45637,0,0,0,0,.86424l11.79812,6.81164a1.65639,1.65639,0,0,0,1.4969,0l10.27057-5.92972a.45637.45637,0,0,0,0-.86424l-11.79813-6.81165A1.65642,1.65642,0,0,0,379.95045,482.40676Z" style="fill:#b6c3cc"/><path d="M395.81165,473.24929l-10.26983,5.92929a.45637.45637,0,0,0,0,.86424L397.34,486.85447a1.65642,1.65642,0,0,0,1.4969,0l10.26983-5.9293a.45636.45636,0,0,0,0-.86423l-11.79813-6.81165A1.65639,1.65639,0,0,0,395.81165,473.24929Z" style="fill:#b6c3cc"/><path d="M424.96788,470.90347l-11.79813-6.81165a1.65642,1.65642,0,0,0-1.4969,0l-10.26983,5.9293a.45636.45636,0,0,0,0,.86423l11.79813,6.81165a1.65639,1.65639,0,0,0,1.4969,0l10.26983-5.92929A.45637.45637,0,0,0,424.96788,470.90347Z" style="fill:#b6c3cc"/><path d="M440.82908,461.746,429.031,454.93435a1.65639,1.65639,0,0,0-1.4969,0l-10.26984,5.9293a.45637.45637,0,0,0,0,.86424l11.79813,6.81165a1.65642,1.65642,0,0,0,1.4969,0l10.26984-5.9293A.45637.45637,0,0,0,440.82908,461.746Z" style="fill:#b6c3cc"/><path d="M456.69028,452.58852l-11.79812-6.81165a1.65639,1.65639,0,0,0-1.4969,0l-10.26984,5.9293a.45636.45636,0,0,0,0,.86423l11.79813,6.81165a1.65639,1.65639,0,0,0,1.4969,0l10.26984-5.9293A.45636.45636,0,0,0,456.69028,452.58852Z" style="fill:#b6c3cc"/><path d="M472.55149,443.431l-11.79813-6.81164a1.65639,1.65639,0,0,0-1.4969,0l-10.26984,5.9293a.45637.45637,0,0,0,0,.86424l11.79813,6.81164a1.65639,1.65639,0,0,0,1.4969,0l10.26984-5.9293A.45637.45637,0,0,0,472.55149,443.431Z" style="fill:#b6c3cc"/><path d="M464.84784,434.25544l11.79813,6.81165a1.65639,1.65639,0,0,0,1.4969,0l10.26984-5.9293a.45636.45636,0,0,0,0-.86423l-11.79813-6.81165a1.65639,1.65639,0,0,0-1.4969,0l-10.26984,5.9293A.45636.45636,0,0,0,464.84784,434.25544Z" style="fill:#b6c3cc"/><path d="M298.56432,543.86493l-11.79813-6.81165a1.65642,1.65642,0,0,0-1.4969,0l-21.62944,12.48778a.45636.45636,0,0,0,0,.86423l11.79813,6.81165a1.65639,1.65639,0,0,0,1.4969,0l21.62944-12.48777A.45637.45637,0,0,0,298.56432,543.86493Z" style="fill:#b6c3cc"/><path d="M226.12872,527.97937l11.35961-6.55847a.45637.45637,0,0,0,0-.86424l-6.74419-3.89375a1.65639,1.65639,0,0,0-1.4969,0l-11.35961,6.55848a.45636.45636,0,0,0,0,.86423l6.74418,3.89376A1.65639,1.65639,0,0,0,226.12872,527.97937Z" style="fill:#b6c3cc"/><path d="M242.42042,518.57335,253.78,512.01487a.45636.45636,0,0,0,0-.86423l-6.74419-3.89376a1.65639,1.65639,0,0,0-1.4969,0l-11.35961,6.55847a.45637.45637,0,0,0,0,.86424l6.74418,3.89376A1.65642,1.65642,0,0,0,242.42042,518.57335Z" style="fill:#b6c3cc"/><path d="M258.71212,509.16732l11.35961-6.55847a.45637.45637,0,0,0,0-.86424l-6.74419-3.89375a1.65639,1.65639,0,0,0-1.4969,0L250.471,504.40932a.45637.45637,0,0,0,0,.86424l6.74419,3.89375A1.65636,1.65636,0,0,0,258.71212,509.16732Z" style="fill:#b6c3cc"/><path d="M275.00382,499.7613l11.35961-6.55848a.45636.45636,0,0,0,0-.86423l-6.74419-3.89376a1.65642,1.65642,0,0,0-1.4969,0l-11.35961,6.55848a.45636.45636,0,0,0,0,.86423l6.74419,3.89376A1.65639,1.65639,0,0,0,275.00382,499.7613Z" style="fill:#b6c3cc"/><path d="M291.29625,490.35485l11.35961-6.55847a.45637.45637,0,0,0,0-.86424l-6.74419-3.89375a1.65639,1.65639,0,0,0-1.4969,0l-11.35961,6.55848a.45637.45637,0,0,0,0,.86424l6.74418,3.89375A1.65636,1.65636,0,0,0,291.29625,490.35485Z" style="fill:#b6c3cc"/><path d="M307.588,480.94883l11.35961-6.55848a.45636.45636,0,0,0,0-.86423l-6.74419-3.89376a1.65642,1.65642,0,0,0-1.4969,0l-11.35961,6.55848a.45636.45636,0,0,0,0,.86423l6.74419,3.89376A1.65642,1.65642,0,0,0,307.588,480.94883Z" style="fill:#b6c3cc"/><path d="M323.87965,471.54281l11.35961-6.55848a.45637.45637,0,0,0,0-.86424l-6.74419-3.89375a1.65636,1.65636,0,0,0-1.4969,0l-11.35961,6.55847a.45637.45637,0,0,0,0,.86424l6.74419,3.89375A1.65639,1.65639,0,0,0,323.87965,471.54281Z" style="fill:#b6c3cc"/><path d="M340.17135,462.13678l11.35961-6.55847a.45637.45637,0,0,0,0-.86424l-6.74419-3.89376a1.65642,1.65642,0,0,0-1.4969,0l-11.35961,6.55848a.45636.45636,0,0,0,0,.86423l6.74419,3.89376A1.65639,1.65639,0,0,0,340.17135,462.13678Z" style="fill:#b6c3cc"/><path d="M356.46378,452.73034l11.35888-6.55806a.45636.45636,0,0,0,0-.86423l-6.74419-3.89376a1.65639,1.65639,0,0,0-1.4969,0l-11.35888,6.558a.45637.45637,0,0,0,0,.86424l6.74419,3.89375A1.65639,1.65639,0,0,0,356.46378,452.73034Z" style="fill:#b6c3cc"/><path d="M372.75548,443.32431l11.35961-6.55847a.45637.45637,0,0,0,0-.86424l-6.74419-3.89376a1.65642,1.65642,0,0,0-1.4969,0l-11.35961,6.55848a.45636.45636,0,0,0,0,.86423l6.74419,3.89376A1.65639,1.65639,0,0,0,372.75548,443.32431Z" style="fill:#b6c3cc"/><path d="M389.04718,433.91829l11.35961-6.55848a.45636.45636,0,0,0,0-.86423l-6.74419-3.89376a1.65639,1.65639,0,0,0-1.4969,0l-11.35961,6.55847a.45637.45637,0,0,0,0,.86424l6.74419,3.89375A1.65639,1.65639,0,0,0,389.04718,433.91829Z" style="fill:#b6c3cc"/><path d="M405.33888,424.51226l11.35961-6.55847a.45637.45637,0,0,0,0-.86424l-6.74419-3.89376a1.65642,1.65642,0,0,0-1.4969,0l-11.35961,6.55848a.45636.45636,0,0,0,0,.86423l6.74419,3.89376A1.65639,1.65639,0,0,0,405.33888,424.51226Z" style="fill:#b6c3cc"/><path d="M421.63058,415.10624l11.35961-6.55848a.45636.45636,0,0,0,0-.86423l-6.74418-3.89376a1.65639,1.65639,0,0,0-1.4969,0l-11.35961,6.55847a.45637.45637,0,0,0,0,.86424l6.74419,3.89376A1.65642,1.65642,0,0,0,421.63058,415.10624Z" style="fill:#b6c3cc"/><path d="M437.923,405.69979l11.35961-6.55847a.45637.45637,0,0,0,0-.86424l-6.74419-3.89376a1.65642,1.65642,0,0,0-1.4969,0l-11.35961,6.55848a.45636.45636,0,0,0,0,.86423l6.74419,3.89376A1.65639,1.65639,0,0,0,437.923,405.69979Z" style="fill:#b6c3cc"/><path d="M458.21491,393.98425l10.86845-6.2749a.45637.45637,0,0,0,0-.86424l-6.74419-3.89376a1.65642,1.65642,0,0,0-1.4969,0l-10.86844,6.2749a.45637.45637,0,0,0,0,.86424l6.74419,3.89376A1.65642,1.65642,0,0,0,458.21491,393.98425Z" style="fill:#b6c3cc"/><path d="M489.11078,380.25928l-10.86845,6.2749a.45636.45636,0,0,0,0,.86423l11.79812,6.81165a1.65636,1.65636,0,0,0,1.4969,0l10.86845-6.2749a.45636.45636,0,0,0,0-.86423l-11.79812-6.81165A1.65639,1.65639,0,0,0,489.11078,380.25928Z" style="fill:#b6c3cc"/><path d="M505.98258,390.00021l-10.86844,6.2749a.45637.45637,0,0,0,0,.86424l11.79776,6.81143a1.65639,1.65639,0,0,0,1.4969,0l10.86844-6.27491a.45636.45636,0,0,0,0-.86423l-11.79776-6.81144A1.65639,1.65639,0,0,0,505.98258,390.00021Z" style="fill:#b6c3cc"/><path d="M522.854,399.74093l-10.86845,6.2749a.45637.45637,0,0,0,0,.86424l11.79812,6.81165a1.65642,1.65642,0,0,0,1.4969,0l10.86845-6.2749a.45637.45637,0,0,0,0-.86424l-11.79812-6.81165A1.65642,1.65642,0,0,0,522.854,399.74093Z" style="fill:#b6c3cc"/><path d="M539.72582,409.48186l-10.86844,6.2749a.45637.45637,0,0,0,0,.86424l11.79813,6.81165a1.65642,1.65642,0,0,0,1.4969,0l10.86844-6.2749a.45637.45637,0,0,0,0-.86424l-11.79813-6.81165A1.65642,1.65642,0,0,0,539.72582,409.48186Z" style="fill:#b6c3cc"/><path d="M477.3079,373.44489l-10.86845,6.2749a.45636.45636,0,0,0,0,.86423l6.74419,3.89376a1.65639,1.65639,0,0,0,1.4969,0l10.86844-6.2749a.45637.45637,0,0,0,0-.86424l-6.74419-3.89375A1.65636,1.65636,0,0,0,477.3079,373.44489Z" style="fill:#b6c3cc"/><path d="M505.57643,370.75282l-10.86844,6.2749a.45637.45637,0,0,0,0,.86424l11.79813,6.81165a1.65642,1.65642,0,0,0,1.4969,0l10.86844-6.27491a.45636.45636,0,0,0,0-.86423l-11.79813-6.81165A1.65642,1.65642,0,0,0,505.57643,370.75282Z" style="fill:#b6c3cc"/><path d="M522.44823,380.49375l-10.86844,6.2749a.45637.45637,0,0,0,0,.86424l11.79777,6.81144a1.6564,1.6564,0,0,0,1.49689,0l10.86845-6.2749a.45637.45637,0,0,0,0-.86424l-11.79776-6.81144A1.65642,1.65642,0,0,0,522.44823,380.49375Z" style="fill:#b6c3cc"/><path d="M539.31967,390.23447l-10.86844,6.27491a.45636.45636,0,0,0,0,.86423l11.79813,6.81165a1.65639,1.65639,0,0,0,1.4969,0l10.86844-6.2749a.45637.45637,0,0,0,0-.86424l-11.79813-6.81164A1.65639,1.65639,0,0,0,539.31967,390.23447Z" style="fill:#b6c3cc"/><path d="M556.19147,399.97541l-10.86844,6.2749a.45636.45636,0,0,0,0,.86423l11.79813,6.81165a1.65639,1.65639,0,0,0,1.4969,0l10.86844-6.2749a.45636.45636,0,0,0,0-.86423l-11.79813-6.81165A1.65636,1.65636,0,0,0,556.19147,399.97541Z" style="fill:#b6c3cc"/><path d="M493.77355,363.93843l-10.86844,6.2749a.45637.45637,0,0,0,0,.86424l6.74419,3.89375a1.65639,1.65639,0,0,0,1.4969,0l10.86844-6.27491a.45636.45636,0,0,0,0-.86423l-6.74419-3.89376A1.65639,1.65639,0,0,0,493.77355,363.93843Z" style="fill:#b6c3cc"/><path d="M510.64631,354.19693l-11.25947,6.50066a.45637.45637,0,0,0,0,.86424l6.74419,3.89375a1.65639,1.65639,0,0,0,1.4969,0l11.25947-6.50067a.45636.45636,0,0,0,0-.86423l-6.74419-3.89376A1.65639,1.65639,0,0,0,510.64631,354.19693Z" style="fill:#b6c3cc"/><path d="M562.694,514.90127l-7.28873-4.20815-55.39689,31.98344,13.94447,8.05084,49.5066-28.58267C566.70758,520.26944,566.364,517.02011,562.694,514.90127Z" style="fill:#b6c3cc"/><path d="M497.28938,483.94144,395.28244,542.83522c-3.24811,1.8753-2.90559,5.12483.76435,7.24368l42.4028,24.48125L552.23787,508.8644l-42.4028-24.48125C506.16512,482.26431,500.53749,482.06614,497.28938,483.94144Z" style="fill:#b6c3cc"/><path d="M461.45253,581.03851l49.50587-28.58224-13.94448-8.05084L441.617,576.38887l7.28872,4.20814C452.5757,582.71585,458.20443,582.91381,461.45253,581.03851Z" style="fill:#b6c3cc"/><path d="M204.24669,314.67187V479.35941c0,6.18856,3.7976,9.05939,8.439,6.3797l271.06079-156.497c4.64137-2.67969,8.439-9.93549,8.439-16.1241V148.43039c0-5.61332-3.1279-8.48149-7.17256-6.96911L211.41925,299.42067C207.37459,302.57874,204.24669,309.05844,204.24669,314.67187Z" style="fill:none"/><path d="M212.68566,298.54765a11.129,11.129,0,0,0-1.26641.873L485.01286,141.46128a8.32874,8.32874,0,0,0-1.26641.58941Z" style="fill:none"/><path d="M485.01286,141.46128c4.04466-1.51238,7.17256,1.35579,7.17256,6.96911V313.11805c0,6.18861-3.7976,13.44441-8.439,16.1241l-271.06079,156.497c-4.64137,2.67969-8.439-.19114-8.439-6.3797V314.67187c0-5.61343,3.1279-12.09313,7.17256-15.2512l-28.43763,16.41845V507.82557c0,7.60256,4.665,11.12928,10.367,7.83737L503.08368,336.83729c5.7018-3.29191,10.367-12.20545,10.367-19.808V125.04271Z" style="fill:#dce5ea"/><path d="M435.14839,167.11547C566.5828,320.29091,586.06161,133.6288,699.99308,210.60015c36.56505,24.7031,2.17861,21.2174-23.7169,13.83258-15.72316-4.48389-33.59978-1.97645-63.39761,16.436-40.35742,24.93731-63.09566,35.94015-109.77637,33.22523C390.12263,267.5231,313.59627,171.06839,435.14839,167.11547Z" style="fill:#3d3d3d"/><g style="clip-path:url(#a)"><ellipse cx="429.21902" cy="245.18554" rx="28.16452" ry="25.19983" style="fill:none;stroke:#494949;stroke-miterlimit:10;stroke-width:6px"/><ellipse cx="537.43005" cy="273.84417" rx="16.30577" ry="13.8352" style="fill:none;stroke:#494949;stroke-miterlimit:10;stroke-width:6px"/><ellipse cx="556.70051" cy="230.85622" rx="10.87052" ry="8.39994" style="fill:none;stroke:#494949;stroke-miterlimit:10;stroke-width:6px"/><ellipse cx="619.94715" cy="236.29148" rx="18.77634" ry="14.82343" style="fill:none;stroke:#494949;stroke-miterlimit:10;stroke-width:6px"/><ellipse cx="655.52338" cy="194.29176" rx="14.82343" ry="11.36463" style="fill:none;stroke:#494949;stroke-miterlimit:10;stroke-width:6px"/><ellipse cx="698.51132" cy="210.10342" rx="5.43526" ry="6.42349" style="fill:none;stroke:#494949;stroke-miterlimit:10;stroke-width:6px"/><ellipse cx="674.29972" cy="224.43273" rx="10.87052" ry="8.89406" style="fill:none;stroke:#494949;stroke-miterlimit:10;stroke-width:6px"/><ellipse cx="497.90091" cy="217.02102" rx="14.32932" ry="16.30577" style="fill:none;stroke:#494949;stroke-miterlimit:10;stroke-width:6px"/><ellipse cx="414.39559" cy="188.36239" rx="13.8352" ry="12.35286" style="fill:none;stroke:#494949;stroke-miterlimit:10;stroke-width:6px"/></g><path d="M212.68566,298.54765l271.06079-156.497a8.32874,8.32874,0,0,1,1.26641-.58941l28.43781-16.41857v-11.822c0-7.6025-4.66519-11.12921-10.367-7.83731L193.34861,284.209c-5.702,3.292-10.367,12.20568-10.367,19.80806v11.82207l28.43763-16.41845A11.129,11.129,0,0,1,212.68566,298.54765Z" style="fill:#dce5ea"/><path d="M204.3203,371.12054s28.18477-40.6275,81.08885-64.83784,130.0185,4.4834,130.0185,4.4834,81.59781,38.55721,130.01849,30.4871S612.69709,305.386,612.69709,305.386s23.31366-21.5203,18.83026,5.38008-70.974,59.31653-104.97966,61.042S402.87414,357.39342,367.007,367.25689s-59.483,63.70373-59.483,63.70373L211.15,486.51594a4.59752,4.59752,0,0,1-6.82968-4.01929Z" style="fill:#6b6b6b"/><g style="clip-path:url(#b)"><ellipse cx="314.55123" cy="404.46908" rx="25.55536" ry="22.86532" style="fill:none;stroke:#898989;stroke-miterlimit:10;stroke-width:6px"/><ellipse cx="236.54013" cy="343.94323" rx="20.17528" ry="11.65683" style="fill:none;stroke:#898989;stroke-miterlimit:10;stroke-width:6px"/><ellipse cx="231.60839" cy="430.47278" rx="14.34687" ry="13.89853" style="fill:none;stroke:#898989;stroke-miterlimit:10;stroke-width:6px"/><ellipse cx="320.37964" cy="304.48935" rx="19.72694" ry="14.34687" style="fill:none;stroke:#898989;stroke-miterlimit:10;stroke-width:6px"/><ellipse cx="406.46085" cy="358.2901" rx="22.41698" ry="18.83026" style="fill:none;stroke:#898989;stroke-miterlimit:10;stroke-width:6px"/><ellipse cx="471.91844" cy="336.32146" rx="21.5203" ry="17.48525" style="fill:none;stroke:#898989;stroke-miterlimit:10;stroke-width:6px"/><ellipse cx="545.44614" cy="340.80486" rx="8.96679" ry="10.31181" style="fill:none;stroke:#898989;stroke-miterlimit:10;stroke-width:6px"/><circle cx="603.73029" cy="345.73659" r="9.86347" style="fill:none;stroke:#898989;stroke-miterlimit:10;stroke-width:6px"/><ellipse cx="624.80226" cy="304.93768" rx="13.00185" ry="9.41513" style="fill:none;stroke:#898989;stroke-miterlimit:10;stroke-width:6px"/><ellipse cx="320.82798" cy="345.73659" rx="7.62177" ry="8.07011" style="fill:none;stroke:#898989;stroke-miterlimit:10;stroke-width:6px"/><ellipse cx="400.63244" cy="313.0078" rx="10.31181" ry="9.41513" style="fill:none;stroke:#898989;stroke-miterlimit:10;stroke-width:6px"/></g><path d="M260.11639,271.14115s58.421,29.38519,105.856,5.6677S451.27476,189.07521,427.77793,114.3c-12.063-38.38856-29.29159-89.18632-1.74876-98.80445C442.7188,9.66744,452.93651,2.08129,429.219.10483S385.37071,24.45331,385.37071,49.159s18.50714,85.74684-.43719,120.66384c-22.29658,41.09566-47.21629,56.61582-47.21629,56.61582Z" style="fill:#545454"/><g style="clip-path:url(#c)"><ellipse cx="408.40693" cy="226.1653" rx="19.29584" ry="17.2647" transform="translate(9.19403 468.19015) rotate(-60.20311)" style="fill:none;stroke:#636363;stroke-miterlimit:10;stroke-width:6px"/><ellipse cx="339.65029" cy="221.46872" rx="15.23356" ry="18.06876" transform="translate(-21.31993 406.16093) rotate(-60.20311)" style="fill:none;stroke:#636363;stroke-miterlimit:10;stroke-width:6px"/><ellipse cx="375.08826" cy="267.86337" rx="10.83275" ry="10.49423" transform="translate(-43.75297 460.25364) rotate(-60.20311)" style="fill:none;stroke:#636363;stroke-miterlimit:10;stroke-width:6px"/><ellipse cx="325.19146" cy="287.35349" rx="14.89503" ry="10.83275" transform="translate(-85.76808 426.75854) rotate(-60.20311)" style="fill:none;stroke:#636363;stroke-miterlimit:10;stroke-width:6px"/><ellipse cx="398.65132" cy="164.28861" rx="26.76589" ry="24.42974" transform="translate(57.04755 427.38647) rotate(-60)" style="fill:none;stroke:#636363;stroke-miterlimit:10;stroke-width:6px"/><ellipse cx="397.52414" cy="91.38894" rx="11.70061" ry="13.45571" transform="translate(120.67711 390.94378) rotate(-60.20311)" style="fill:none;stroke:#636363;stroke-miterlimit:10;stroke-width:6px"/><circle cx="417.70738" cy="20.94604" r="7.44752" style="fill:none;stroke:#636363;stroke-miterlimit:10;stroke-width:6px"/><ellipse cx="408.74267" cy="49.94254" rx="11.32113" ry="11.22606" transform="translate(162.28772 379.82855) rotate(-60.20311)" style="fill:none;stroke:#636363;stroke-miterlimit:10;stroke-width:6px"/><ellipse cx="299.7747" cy="264.07966" rx="5.7549" ry="6.09342" transform="translate(-78.35772 392.99362) rotate(-60.20311)" style="fill:none;stroke:#636363;stroke-miterlimit:10;stroke-width:6px"/><ellipse cx="429.67967" cy="114.10117" rx="7.78604" ry="7.10899" transform="translate(117.1442 430.27402) rotate(-60.20311)" style="fill:none;stroke:#636363;stroke-miterlimit:10;stroke-width:6px"/></g></svg>