<?xml version="1.0" encoding="UTF-8"?>
<svg xmlns="http://www.w3.org/2000/svg" xmlns:xlink="http://www.w3.org/1999/xlink" width="810pt" height="809.999993pt" viewBox="0 0 810 809.999993" version="1.2">
<g id="surface1">
<path style=" stroke:none;fill-rule:nonzero;fill:rgb(85.099792%,85.099792%,85.099792%);fill-opacity:1;" d="M 746.238281 309.480469 C 746.382812 309.335938 746.382812 309.335938 746.527344 309.1875 C 746.527344 309.042969 746.671875 309.042969 746.671875 308.898438 C 746.382812 309.1875 746.238281 309.335938 746.238281 309.480469 Z M 746.238281 309.480469 "/>
<path style=" stroke:none;fill-rule:nonzero;fill:rgb(94.119263%,94.119263%,93.328857%);fill-opacity:1;" d="M 426.332031 467.625 C 424.585938 466.605469 422.691406 465.730469 420.796875 464.859375 C 416.71875 463.109375 412.496094 461.800781 408.269531 460.488281 C 399.964844 458.015625 391.664062 456.121094 383.359375 453.789062 C 353.203125 445.492188 323.488281 434.132812 293.769531 424.230469 C 262.304688 413.890625 232.148438 400.640625 200.246094 391.902344 C 186.550781 388.117188 173.003906 384.183594 159.75 379.085938 C 155.230469 377.339844 150.714844 375.59375 145.910156 374.28125 C 143.433594 373.554688 138.1875 371.953125 136.878906 372.535156 C 131.925781 375.007812 128.136719 371.660156 127.117188 367.4375 C 125.078125 370.496094 123.476562 374.136719 122.308594 376.613281 C 118.667969 383.601562 115.609375 390.882812 111.382812 397.433594 C 102.351562 412.144531 90.40625 424.667969 80.9375 439.082031 C 90.699219 440.539062 99.730469 444.761719 108.617188 448.984375 C 121 454.957031 133.671875 459.46875 146.636719 463.984375 C 160.621094 468.933594 175.042969 472.574219 189.175781 477.089844 C 202.285156 481.3125 215.105469 486.117188 228.214844 490.488281 C 256.769531 500.097656 285.464844 509.125 314.890625 515.972656 C 339.21875 521.648438 363.984375 529.222656 388.894531 531.699219 C 389.476562 531.261719 390.207031 530.824219 390.933594 530.535156 C 395.160156 529.078125 397.488281 522.816406 399.238281 519.175781 C 401.570312 513.933594 403.460938 508.542969 405.792969 503.449219 C 408.851562 496.605469 413.367188 490.050781 417.15625 483.496094 C 420.214844 478.109375 423.421875 472.867188 426.769531 467.625 C 426.625 467.769531 426.480469 467.769531 426.332031 467.625 Z M 426.332031 467.625 "/>
<path style=" stroke:none;fill-rule:nonzero;fill:rgb(85.099792%,85.099792%,85.099792%);fill-opacity:1;" d="M 417.738281 516.554688 C 413.367188 527.476562 408.414062 541.453125 396.324219 545.96875 C 394.722656 546.550781 393.265625 546.550781 391.953125 546.261719 C 390.496094 547.28125 388.605469 547.863281 386.417969 547.714844 C 361.363281 545.242188 336.453125 537.667969 311.980469 531.84375 C 283.570312 525.144531 255.75 516.40625 228.070312 507.234375 C 214.230469 502.574219 200.390625 497.332031 186.40625 492.964844 C 173.296875 488.886719 160.039062 485.390625 147.074219 481.023438 C 144.160156 480.148438 141.394531 479.128906 138.480469 478.109375 C 138.1875 478.546875 137.898438 478.984375 137.605469 479.421875 C 139.207031 477.382812 138.042969 479.273438 138.1875 481.023438 C 138.335938 483.207031 138.625 485.390625 139.0625 487.429688 C 139.789062 491.945312 140.957031 496.3125 141.683594 500.828125 C 143.871094 513.203125 141.832031 525.4375 141.976562 537.8125 C 142.414062 566.5 145.035156 595.042969 145.328125 623.730469 C 145.472656 623.730469 145.472656 623.875 145.617188 623.875 C 162.660156 636.835938 186.699219 636.984375 206.21875 644.117188 C 232.148438 653.582031 257.203125 665.378906 283.136719 674.554688 C 309.792969 684.019531 336.742188 692.902344 363.695312 701.785156 C 383.941406 708.484375 404.917969 712.707031 425.167969 719.550781 C 425.898438 675.425781 430.121094 631.449219 431.871094 587.324219 C 433.179688 553.542969 433.617188 519.613281 433.761719 485.828125 C 427.5 495.875 421.816406 506.214844 417.738281 516.554688 Z M 378.988281 158.617188 C 378.40625 156.722656 377.53125 154.828125 376.660156 152.9375 C 374.472656 148.421875 371.707031 143.910156 368.9375 139.683594 C 366.023438 135.171875 362.964844 130.65625 359.46875 126.578125 C 358.15625 124.976562 356.847656 123.375 355.390625 122.066406 C 354.078125 120.898438 353.640625 120.464844 353.496094 120.464844 C 351.164062 119.152344 349.855469 117.257812 349.5625 115.222656 C 348.25 114.636719 347.085938 113.621094 346.066406 112.015625 C 341.988281 104.882812 326.109375 111.726562 320.574219 113.765625 C 309.355469 117.988281 298.140625 123.230469 288.089844 129.492188 C 273.667969 138.519531 260.554688 149.441406 246.714844 159.488281 C 233.3125 169.246094 219.039062 177.691406 205.199219 186.722656 C 179.269531 203.46875 158.292969 226.621094 132.796875 243.804688 C 125.222656 249.046875 117.648438 254.144531 110.074219 259.53125 C 106.429688 262.152344 102.789062 264.773438 99.292969 267.394531 C 98.128906 268.269531 97.109375 269.144531 96.089844 270.015625 C 96.089844 270.015625 95.941406 270.164062 95.796875 270.308594 C 95.796875 270.308594 95.796875 270.308594 95.652344 270.453125 C 95.503906 270.746094 95.214844 271.035156 95.070312 271.179688 C 95.214844 271.472656 95.214844 271.765625 95.359375 272.054688 C 95.503906 272.199219 95.503906 272.347656 95.652344 272.785156 C 96.089844 273.804688 96.523438 274.820312 96.960938 275.839844 C 98.128906 278.460938 99.4375 280.9375 100.75 283.558594 C 104.828125 291.421875 108.90625 299.433594 113.132812 307.296875 C 117.503906 315.597656 121.871094 323.898438 126.097656 332.34375 C 127.117188 334.382812 128.71875 337.003906 130.175781 339.769531 C 131.339844 340.496094 132.214844 341.515625 132.652344 342.828125 C 140.519531 337.730469 148.96875 333.507812 156.398438 327.828125 C 166.886719 319.820312 177.375 312.101562 187.863281 304.238281 C 209.714844 288.074219 231.859375 271.910156 253.5625 255.601562 C 275.558594 239.144531 297.558594 222.398438 319.554688 205.796875 C 337.617188 192.109375 356.992188 175.363281 378.84375 168.226562 C 379.425781 168.082031 379.863281 167.9375 380.300781 167.9375 C 378.261719 165.460938 377.09375 161.527344 378.988281 158.617188 Z M 671.066406 173.90625 C 669.464844 173.761719 667.863281 173.761719 666.550781 173.46875 C 664.074219 172.886719 661.597656 172.449219 659.121094 171.722656 C 654.023438 170.410156 648.925781 168.808594 643.972656 167.207031 C 634.210938 164.003906 625.179688 159.78125 615.710938 155.703125 C 596.628906 147.402344 576.816406 141.433594 556.714844 136.628906 C 517.234375 127.160156 476.882812 121.484375 437.695312 110.851562 C 437.257812 112.453125 436.386719 113.765625 435.21875 114.785156 C 435.074219 115.222656 434.78125 115.65625 434.78125 115.949219 C 433.761719 118.425781 432.015625 120.609375 430.558594 122.9375 C 427.207031 128.765625 424.003906 134.734375 421.234375 140.851562 C 417.15625 149.585938 409.433594 158.46875 406.8125 167.9375 C 413.953125 170.558594 420.796875 173.761719 427.644531 176.964844 C 438.425781 181.914062 450.515625 184.683594 461.734375 188.324219 C 475.71875 192.835938 489.703125 197.644531 503.832031 201.574219 C 531.949219 209.292969 560.5 215.554688 588.90625 222.980469 C 603.039062 226.621094 617.023438 230.554688 630.863281 235.066406 C 637.5625 237.25 644.410156 239.582031 650.964844 242.058594 C 651.402344 242.203125 651.839844 242.347656 652.128906 242.640625 C 651.691406 240.601562 652.277344 238.269531 654.023438 236.234375 C 661.308594 228.222656 662.035156 215.117188 664.367188 205.070312 C 665.824219 198.953125 667.28125 192.691406 668.738281 186.574219 C 669.609375 182.933594 671.796875 178.128906 672.234375 175.070312 C 671.941406 174.632812 671.503906 174.34375 671.066406 173.90625 Z M 641.203125 255.308594 C 639.457031 254.726562 637.707031 254 636.105469 253.414062 C 632.464844 252.105469 628.820312 250.941406 625.179688 249.773438 C 619.0625 247.882812 612.945312 245.988281 606.824219 244.242188 C 594.589844 240.746094 582.207031 237.542969 569.824219 234.484375 C 545.058594 228.367188 519.855469 223.273438 495.382812 215.699219 C 483.148438 211.914062 470.765625 207.835938 458.527344 203.90625 C 447.164062 200.265625 435.074219 197.496094 424.148438 192.835938 C 418.175781 190.214844 412.347656 187.304688 406.375 184.828125 C 403.171875 183.515625 399.964844 182.0625 396.761719 181.1875 C 395.449219 180.75 393.992188 180.460938 392.683594 180.167969 C 391.082031 181.042969 389.625 181.332031 388.167969 181.042969 C 387.292969 182.0625 386.128906 182.789062 384.523438 183.371094 C 373.308594 187.011719 363.546875 194.003906 353.933594 200.847656 C 343.882812 207.980469 334.121094 215.117188 324.214844 222.542969 C 303.09375 238.5625 281.96875 254.726562 260.554688 270.597656 C 238.703125 286.910156 216.707031 302.925781 194.855469 319.238281 C 184.367188 326.953125 174.316406 335.691406 163.390625 342.828125 C 155.960938 347.632812 148.238281 351.710938 140.808594 356.660156 C 147.804688 357.535156 155.523438 361.03125 160.769531 362.921875 C 174.753906 368.019531 188.738281 372.679688 203.160156 376.613281 C 238.703125 386.222656 272.5 400.640625 307.316406 412.289062 C 336.597656 422.046875 365.878906 433.257812 395.886719 440.976562 C 406.230469 443.597656 416.71875 446.21875 426.625 450.296875 C 429.828125 451.605469 433.328125 453.207031 436.238281 455.394531 C 438.863281 450.878906 442.796875 446.65625 446 443.304688 C 452.410156 436.460938 459.546875 430.054688 466.101562 423.210938 C 485.332031 402.96875 505.433594 383.308594 526.265625 364.671875 C 548.410156 344.574219 571.71875 325.789062 593.714844 305.402344 C 604.496094 295.355469 616.292969 285.742188 626.492188 275.113281 C 632.027344 269.433594 636.980469 263.171875 642.222656 257.203125 C 641.789062 256.472656 641.496094 255.890625 641.203125 255.308594 Z M 641.203125 255.308594 "/>
<path style=" stroke:none;fill-rule:nonzero;fill:rgb(94.119263%,94.119263%,93.328857%);fill-opacity:1;" d="M 727.734375 304.675781 C 723.367188 304.675781 720.597656 301.761719 719.722656 298.414062 C 708.507812 291.277344 696.707031 285.015625 686.945312 276.132812 C 682.578125 272.199219 678.496094 267.976562 674.273438 264.046875 C 672.234375 262.152344 670.195312 260.261719 667.863281 258.511719 C 667.71875 258.367188 667.425781 258.222656 667.28125 258.074219 C 665.96875 258.367188 664.660156 258.222656 663.492188 257.785156 C 663.347656 257.929688 663.203125 258.074219 663.054688 258.222656 C 653.296875 266.957031 646.011719 277.878906 636.542969 286.910156 C 626.347656 296.664062 615.855469 305.984375 605.515625 315.597656 C 584.101562 335.253906 561.519531 353.601562 539.960938 372.972656 C 519.273438 391.757812 498.589844 411.125 479.503906 431.65625 C 473.679688 437.917969 467.269531 443.597656 461.441406 449.714844 C 458.671875 452.625 453.867188 456.847656 451.246094 460.78125 C 457.945312 466.023438 464.644531 475.195312 466.976562 477.964844 C 473.824219 485.828125 481.980469 492.378906 489.558594 499.515625 C 491.886719 501.847656 494.21875 504.175781 496.550781 506.359375 C 497.421875 507.234375 498.296875 508.109375 499.316406 508.835938 C 501.9375 509.125 504.414062 510.730469 505.726562 513.785156 C 505.726562 513.785156 505.726562 513.785156 505.726562 513.933594 C 527.578125 500.679688 543.164062 479.421875 563.269531 463.839844 C 574.777344 454.957031 586.429688 446.21875 597.9375 437.191406 C 609.011719 428.453125 619.0625 418.257812 629.550781 408.792969 C 650.820312 389.570312 671.941406 370.203125 691.898438 349.527344 C 701.078125 340.058594 709.816406 330.449219 717.683594 319.820312 C 721.472656 314.722656 725.113281 309.625 728.753906 304.382812 L 727.734375 304.382812 Z M 727.734375 304.675781 "/>
<path style=" stroke:none;fill-rule:nonzero;fill:rgb(85.099792%,85.099792%,85.099792%);fill-opacity:1;" d="M 680.683594 453.355469 C 678.789062 432.09375 679.515625 409.957031 675 388.84375 C 661.308594 401.804688 647.46875 414.328125 633.484375 426.996094 C 623.433594 436.171875 613.671875 445.636719 602.890625 453.9375 C 592.113281 462.382812 581.1875 470.539062 570.40625 478.835938 C 550.886719 494.128906 536.027344 514.660156 514.613281 527.476562 C 510.097656 530.242188 505.433594 528.058594 503.25 524.5625 C 501.648438 525.726562 499.609375 526.164062 497.132812 526.019531 C 492.324219 525.582031 487.664062 520.046875 484.457031 516.84375 C 477.613281 510.144531 470.328125 503.738281 463.335938 497.039062 C 458.527344 492.378906 454.304688 487.429688 449.933594 482.476562 C 449.789062 482.332031 449.640625 482.1875 449.496094 481.894531 C 449.496094 517.71875 449.203125 553.542969 447.457031 589.21875 C 445.417969 630.722656 441.777344 672.078125 440.902344 713.726562 C 445.855469 709.648438 451.097656 705.863281 456.34375 702.222656 C 468.433594 693.921875 480.378906 685.328125 492.324219 676.882812 C 516.359375 659.84375 541.417969 644.554688 564.578125 626.496094 C 575.796875 617.761719 587.449219 609.460938 597.792969 599.558594 C 607.40625 590.238281 616.441406 580.335938 626.054688 571.015625 C 635.085938 561.988281 644.554688 553.394531 654.460938 545.242188 C 664.222656 537.085938 673.980469 528.929688 681.703125 518.738281 C 683.011719 516.992188 684.617188 516.117188 686.21875 515.824219 C 686.507812 494.855469 682.722656 474.03125 680.683594 453.355469 Z M 680.683594 453.355469 "/>
<path style=" stroke:none;fill-rule:nonzero;fill:rgb(32.939148%,32.939148%,32.939148%);fill-opacity:1;" d="M 740.847656 294.480469 C 740.265625 294.480469 739.828125 294.480469 739.390625 294.625 C 739.097656 293.023438 738.222656 291.714844 736.765625 290.695312 C 721.761719 280.210938 705.738281 272.054688 693.648438 260.40625 C 688.550781 255.453125 678.933594 243.660156 669.757812 241.765625 C 675.292969 232.882812 677.1875 221.816406 679.226562 211.769531 C 680.683594 205.070312 682.578125 198.515625 683.886719 191.964844 C 685.054688 186.429688 687.382812 181.332031 688.113281 175.945312 C 688.257812 175.21875 688.402344 174.632812 688.402344 173.90625 L 688.402344 172.742188 C 688.402344 170.558594 687.675781 168.957031 686.507812 167.789062 C 686.363281 165.023438 684.90625 162.257812 682.140625 160.800781 C 678.351562 158.761719 673.542969 158.761719 669.320312 158.035156 C 664.222656 157.015625 659.269531 155.703125 654.316406 154.246094 C 643.246094 151.042969 633.046875 146.238281 622.558594 141.578125 C 603.183594 132.988281 582.644531 126.871094 561.957031 121.773438 C 520.003906 111.433594 477.175781 105.902344 435.511719 93.960938 C 430.996094 92.648438 427.9375 95.125 426.917969 98.621094 C 425.460938 99.058594 424.148438 99.785156 423.273438 101.097656 C 420.945312 104.445312 420.507812 108.523438 418.320312 111.871094 C 413.804688 118.863281 410.019531 126.289062 406.523438 133.859375 C 403.171875 140.851562 398.074219 147.839844 394.429688 155.121094 C 392.539062 148.421875 388.167969 141.433594 385.980469 137.648438 C 379.71875 127.015625 371.558594 112.601562 360.34375 106.484375 C 360.199219 106.484375 360.199219 106.484375 360.050781 106.339844 C 359.90625 105.320312 359.613281 104.300781 359.03125 103.28125 C 346.210938 81 310.230469 100.511719 294.0625 108.085938 C 277.164062 115.949219 262.304688 127.453125 247.589844 138.667969 C 232.441406 150.316406 216.417969 160.507812 200.390625 170.703125 C 183.054688 181.625 167.761719 194.585938 152.027344 207.691406 C 141.832031 216.28125 131.925781 225.019531 120.851562 232.59375 C 112.113281 238.5625 103.519531 244.53125 95.070312 250.648438 C 89.679688 254.582031 79.042969 260.40625 81.082031 268.414062 C 80.792969 268.851562 80.355469 269.433594 80.210938 270.015625 C 78.023438 275.113281 81.082031 280.066406 83.269531 284.578125 C 87.054688 292.441406 91.136719 300.160156 95.214844 307.878906 C 99.730469 316.617188 104.390625 325.351562 108.90625 334.089844 C 110.800781 337.585938 112.550781 341.078125 114.296875 344.71875 C 115.027344 346.175781 115.609375 347.488281 116.335938 348.945312 C 116.917969 350.109375 117.210938 352.730469 117.210938 350.109375 C 117.210938 351.273438 117.503906 352.4375 117.792969 353.3125 C 109.925781 361.757812 105.265625 374.71875 100.3125 384.039062 C 89.824219 404.425781 72.199219 420.296875 61.125 440.394531 C 57.921875 446.074219 63.164062 451.898438 68.992188 451.898438 L 70.15625 451.898438 C 71.613281 453.5 73.65625 454.664062 76.277344 454.808594 C 86.910156 455.246094 97.253906 461.945312 106.722656 466.3125 C 111.96875 468.789062 117.355469 470.972656 122.746094 473.011719 C 120.125 479.566406 122.019531 487.429688 123.328125 494.273438 C 125.804688 506.796875 126.242188 518.300781 125.660156 531.117188 C 124.785156 546.84375 126.679688 562.714844 127.410156 578.296875 C 128.136719 595.335938 128.71875 612.371094 128.71875 629.410156 C 128.71875 633.632812 131.339844 635.964844 134.546875 636.398438 C 151.589844 649.214844 173.734375 651.835938 193.980469 657.371094 C 221.078125 664.652344 246.425781 678.921875 272.792969 688.386719 C 299.015625 697.851562 325.527344 706.589844 352.039062 715.328125 C 365.003906 719.550781 377.824219 723.917969 391.082031 727.269531 C 403.316406 730.324219 415.554688 733.382812 427.355469 738.042969 C 430.996094 739.5 434.347656 738.1875 436.53125 735.859375 C 436.824219 735.859375 437.113281 735.859375 437.40625 735.859375 C 440.753906 735.859375 442.941406 734.257812 443.960938 731.925781 C 446.875 729.742188 449.640625 727.121094 452.410156 724.792969 C 457.945312 720.421875 463.625 716.492188 469.453125 712.558594 C 481.835938 704.40625 493.636719 695.375 505.726562 686.929688 C 529.761719 670.039062 554.527344 654.601562 577.691406 636.546875 C 588.617188 628.097656 599.542969 619.652344 609.59375 610.1875 C 619.351562 601.015625 628.386719 591.113281 637.855469 581.644531 C 653.441406 566.066406 672.523438 553.25 687.382812 536.648438 C 688.695312 537.085938 690.152344 537.523438 691.753906 537.667969 C 695.6875 538.105469 700.640625 535.921875 701.078125 531.40625 C 703.554688 505.632812 699.183594 480.148438 696.5625 454.664062 C 693.792969 428.597656 695.25 401.804688 687.820312 376.320312 C 689.859375 374.28125 692.046875 372.242188 694.085938 370.203125 C 703.554688 360.738281 713.167969 351.273438 721.617188 340.933594 C 729.339844 331.46875 736.183594 321.421875 743.324219 311.371094 C 744.195312 310.9375 744.925781 310.355469 745.652344 309.625 C 745.652344 309.480469 745.945312 309.335938 746.089844 309.042969 C 745.945312 309.1875 745.945312 309.1875 745.945312 309.335938 C 746.089844 309.1875 746.089844 309.1875 746.238281 309.042969 C 746.382812 308.75 746.671875 308.460938 747.109375 308.023438 C 752.355469 302.054688 747.691406 294.625 740.847656 294.480469 Z M 421.234375 140.558594 C 424.003906 134.441406 427.207031 128.472656 430.558594 122.648438 C 431.871094 120.316406 433.617188 118.132812 434.78125 115.65625 C 434.929688 115.511719 435.074219 115.074219 435.21875 114.492188 C 436.386719 113.472656 437.257812 112.308594 437.695312 110.5625 C 476.882812 121.335938 517.234375 127.015625 556.714844 136.335938 C 576.816406 141.140625 596.628906 147.257812 615.710938 155.414062 C 625.179688 159.488281 634.210938 163.714844 643.972656 166.917969 C 648.925781 168.519531 654.023438 170.121094 659.121094 171.429688 C 661.597656 172.011719 664.074219 172.597656 666.550781 173.179688 C 667.71875 173.46875 669.464844 173.46875 671.066406 173.617188 C 671.503906 174.050781 671.941406 174.34375 672.378906 174.632812 C 671.796875 177.691406 669.757812 182.5 668.882812 186.140625 C 667.28125 192.253906 665.96875 198.371094 664.511719 204.632812 C 662.183594 214.679688 661.453125 227.933594 654.167969 235.796875 C 652.277344 237.835938 651.839844 240.164062 652.277344 242.203125 C 651.839844 242.058594 651.546875 241.910156 651.109375 241.621094 C 644.410156 239.144531 637.707031 236.816406 631.007812 234.628906 C 617.167969 230.117188 603.039062 226.183594 589.054688 222.542969 C 560.792969 215.261719 532.238281 209 503.980469 201.136719 C 489.847656 197.207031 475.863281 192.398438 461.878906 187.886719 C 450.515625 184.246094 438.570312 181.480469 427.789062 176.527344 C 420.945312 173.324219 414.097656 170.121094 406.960938 167.5 C 409.433594 158.179688 417.15625 149.441406 421.234375 140.558594 Z M 113.277344 307.148438 C 109.199219 299.285156 104.972656 291.421875 100.894531 283.414062 C 99.585938 280.9375 98.273438 278.316406 97.109375 275.695312 C 96.671875 274.675781 96.234375 273.65625 95.796875 272.636719 C 95.652344 272.199219 95.503906 272.054688 95.503906 271.910156 C 95.503906 271.617188 95.359375 271.328125 95.214844 271.035156 C 95.503906 270.746094 95.652344 270.453125 95.796875 270.308594 C 95.796875 270.308594 95.796875 270.308594 95.941406 270.164062 C 96.089844 270.015625 96.234375 269.871094 96.234375 269.871094 C 97.253906 268.996094 98.417969 268.125 99.4375 267.25 C 102.933594 264.484375 106.578125 261.863281 110.21875 259.386719 C 117.648438 254 125.222656 248.753906 132.945312 243.660156 C 158.4375 226.332031 179.414062 203.320312 205.34375 186.574219 C 219.183594 177.546875 233.460938 169.101562 246.863281 159.34375 C 260.699219 149.296875 273.8125 138.375 288.234375 129.347656 C 298.285156 123.085938 309.503906 117.84375 320.71875 113.621094 C 326.253906 111.582031 342.132812 104.734375 346.210938 111.871094 C 347.085938 113.472656 348.398438 114.492188 349.707031 115.074219 C 350.144531 117.113281 351.3125 119.152344 353.640625 120.316406 C 353.789062 120.316406 354.222656 120.753906 355.535156 121.917969 C 356.992188 123.375 358.304688 124.832031 359.613281 126.433594 C 362.964844 130.65625 366.171875 135.027344 369.082031 139.539062 C 371.851562 143.761719 374.617188 148.132812 376.804688 152.792969 C 377.679688 154.683594 378.40625 156.433594 379.136719 158.46875 C 377.242188 161.382812 378.261719 165.316406 380.882812 167.789062 C 380.445312 167.789062 379.863281 167.9375 379.425781 168.082031 C 357.574219 175.21875 338.199219 191.964844 320.136719 205.652344 C 298.140625 222.253906 276.289062 239 254.144531 255.453125 C 232.292969 271.765625 210.296875 287.78125 188.445312 304.09375 C 177.957031 311.957031 167.324219 319.671875 156.980469 327.683594 C 149.550781 333.363281 141.101562 337.585938 133.234375 342.683594 C 132.652344 341.371094 131.777344 340.351562 130.757812 339.625 C 129.300781 336.855469 127.699219 334.382812 126.679688 332.195312 C 122.019531 323.75 117.648438 315.449219 113.277344 307.148438 Z M 108.617188 449.132812 C 99.585938 444.761719 90.699219 440.683594 80.9375 439.230469 C 90.40625 424.957031 102.351562 412.289062 111.382812 397.582031 C 115.464844 390.882812 118.667969 383.601562 122.308594 376.757812 C 123.621094 374.28125 125.222656 370.785156 127.117188 367.582031 C 128.136719 371.804688 131.925781 375.15625 136.878906 372.679688 C 138.042969 372.097656 143.433594 373.699219 145.910156 374.425781 C 150.570312 375.738281 155.230469 377.484375 159.75 379.234375 C 173.003906 384.328125 186.550781 388.40625 200.246094 392.046875 C 232.292969 400.785156 262.449219 413.890625 293.769531 424.375 C 323.488281 434.277344 353.203125 445.636719 383.359375 453.9375 C 391.664062 456.265625 399.964844 458.160156 408.269531 460.636719 C 412.496094 461.945312 416.71875 463.257812 420.796875 465.003906 C 422.691406 465.730469 424.585938 466.75 426.332031 467.769531 C 426.480469 467.769531 426.480469 467.917969 426.625 467.917969 C 423.273438 473.160156 420.070312 478.402344 417.011719 483.789062 C 413.222656 490.339844 408.707031 496.894531 405.648438 503.738281 C 403.316406 508.980469 401.421875 514.371094 399.09375 519.464844 C 397.34375 523.105469 395.011719 529.367188 390.789062 530.824219 C 389.914062 531.117188 389.332031 531.550781 388.75 531.988281 C 363.839844 529.367188 339.074219 521.941406 314.746094 516.261719 C 285.464844 509.417969 256.621094 500.242188 228.070312 490.777344 C 215.105469 486.410156 202.140625 481.605469 189.027344 477.382812 C 174.898438 472.867188 160.476562 469.226562 146.492188 464.277344 C 133.671875 459.761719 121 455.101562 108.617188 449.132812 Z M 431.722656 587.617188 C 429.976562 631.738281 425.605469 675.570312 425.023438 719.839844 C 404.773438 712.996094 383.796875 708.773438 363.546875 702.074219 C 336.597656 693.191406 309.792969 684.308594 282.988281 674.84375 C 256.914062 665.667969 232.003906 653.875 206.074219 644.410156 C 186.550781 637.273438 162.371094 637.128906 145.472656 624.167969 C 145.328125 624.167969 145.328125 624.023438 145.179688 624.023438 C 144.890625 595.335938 142.265625 566.792969 141.832031 538.105469 C 141.683594 525.726562 143.722656 513.351562 141.539062 501.117188 C 140.808594 496.601562 139.644531 492.234375 138.917969 487.71875 C 138.480469 485.535156 138.335938 483.496094 138.042969 481.3125 C 137.898438 479.566406 138.917969 477.671875 137.460938 479.710938 C 137.75 479.273438 138.042969 478.835938 138.335938 478.402344 C 141.246094 479.421875 144.015625 480.292969 146.929688 481.3125 C 159.894531 485.535156 173.148438 489.175781 186.261719 493.253906 C 200.246094 497.621094 214.085938 502.863281 227.925781 507.523438 C 255.601562 516.84375 283.425781 525.4375 311.832031 532.136719 C 336.304688 537.960938 361.21875 545.386719 386.273438 548.007812 C 388.457031 548.300781 390.351562 547.714844 391.808594 546.550781 C 393.121094 546.84375 394.578125 546.84375 396.179688 546.261719 C 408.269531 541.890625 413.367188 527.910156 417.59375 516.84375 C 421.671875 506.503906 427.351562 496.167969 433.472656 486.410156 C 433.617188 520.046875 433.179688 553.832031 431.722656 587.617188 Z M 436.238281 455.101562 C 433.328125 452.917969 429.828125 451.316406 426.625 450.003906 C 416.71875 445.925781 406.230469 443.304688 395.886719 440.683594 C 365.878906 432.96875 336.742188 421.753906 307.316406 411.996094 C 272.5 400.347656 238.703125 385.929688 203.160156 376.320312 C 188.738281 372.386719 174.753906 367.730469 160.769531 362.632812 C 155.523438 360.738281 147.804688 357.242188 140.808594 356.371094 C 148.09375 351.417969 155.960938 347.339844 163.390625 342.535156 C 174.316406 335.402344 184.367188 326.664062 194.855469 318.945312 C 216.707031 302.78125 238.703125 286.617188 260.554688 270.308594 C 281.824219 254.433594 302.945312 238.269531 324.214844 222.253906 C 333.976562 214.824219 343.882812 207.691406 353.933594 200.554688 C 363.546875 193.710938 373.308594 186.722656 384.523438 183.082031 C 386.128906 182.644531 387.292969 181.769531 388.167969 180.75 C 389.625 181.042969 391.226562 180.75 392.683594 179.875 C 394.140625 180.023438 395.449219 180.460938 396.761719 180.894531 C 400.113281 181.769531 403.316406 183.226562 406.375 184.535156 C 412.347656 187.011719 418.175781 189.925781 424.148438 192.546875 C 435.074219 197.207031 447.164062 199.972656 458.527344 203.613281 C 470.765625 207.546875 483 211.476562 495.382812 215.410156 C 519.710938 222.980469 545.058594 228.078125 569.824219 234.195312 C 582.207031 237.25 594.589844 240.457031 606.824219 243.949219 C 612.945312 245.699219 619.0625 247.589844 625.179688 249.484375 C 628.820312 250.648438 632.464844 251.960938 636.105469 253.125 C 637.855469 253.707031 639.601562 254.289062 641.203125 255.019531 C 641.496094 255.601562 641.789062 256.035156 642.078125 256.621094 C 636.835938 262.589844 631.734375 268.707031 626.347656 274.53125 C 616.148438 285.160156 604.496094 294.773438 593.570312 304.820312 C 571.570312 325.207031 548.265625 343.992188 526.121094 364.089844 C 505.433594 382.875 485.332031 402.53125 465.957031 422.628906 C 459.402344 429.472656 452.410156 435.878906 445.855469 442.722656 C 442.796875 446.363281 438.863281 450.585938 436.238281 455.101562 Z M 681.847656 518.59375 C 674.128906 528.785156 664.367188 536.941406 654.605469 545.09375 C 644.699219 553.25 635.378906 561.84375 626.199219 570.871094 C 616.730469 580.335938 607.699219 590.238281 597.9375 599.414062 C 587.597656 609.316406 576.085938 617.613281 564.726562 626.351562 C 541.5625 644.410156 516.507812 659.699219 492.46875 676.738281 C 480.523438 685.183594 468.578125 693.773438 456.488281 702.074219 C 451.097656 705.714844 446 709.648438 441.046875 713.578125 C 441.921875 672.078125 445.5625 630.574219 447.601562 589.074219 C 449.351562 553.394531 449.640625 517.574219 449.640625 481.75 C 449.789062 481.894531 449.933594 482.042969 450.078125 482.332031 C 454.304688 487.429688 458.671875 492.378906 463.480469 496.894531 C 470.472656 503.59375 477.757812 509.855469 484.605469 516.699219 C 487.808594 519.902344 492.46875 525.4375 497.277344 525.875 C 499.753906 526.164062 501.648438 525.582031 503.394531 524.417969 C 505.582031 527.914062 510.097656 530.097656 514.757812 527.328125 C 536.171875 514.371094 551.175781 493.835938 570.550781 478.691406 C 581.332031 470.246094 592.257812 462.089844 603.039062 453.789062 C 613.816406 445.492188 623.578125 435.878906 633.628906 426.851562 C 647.613281 414.183594 661.453125 401.660156 675.148438 388.699219 C 679.664062 409.667969 678.933594 431.800781 680.828125 453.207031 C 682.722656 473.886719 686.65625 494.710938 686.507812 515.679688 C 684.761719 515.972656 683.160156 516.84375 681.847656 518.59375 Z M 717.976562 319.964844 C 710.109375 330.59375 701.367188 340.207031 692.191406 349.671875 C 672.234375 370.203125 650.964844 389.570312 629.84375 408.9375 C 619.351562 418.40625 609.300781 428.597656 598.230469 437.335938 C 586.867188 446.363281 575.066406 455.101562 563.558594 463.984375 C 543.457031 479.566406 527.871094 500.679688 506.019531 514.078125 C 506.019531 514.078125 506.019531 514.078125 506.019531 513.933594 C 504.707031 510.875 502.230469 509.417969 499.609375 508.980469 C 498.734375 508.109375 497.714844 507.234375 496.839844 506.503906 C 494.507812 504.320312 492.179688 501.847656 489.847656 499.660156 C 482.417969 492.527344 474.117188 485.972656 467.269531 478.109375 C 464.792969 475.34375 458.089844 466.167969 451.535156 460.925781 C 454.15625 456.847656 458.964844 452.625 461.734375 449.859375 C 467.707031 443.742188 473.96875 438.0625 479.796875 431.800781 C 498.878906 411.269531 519.566406 391.902344 540.25 373.117188 C 561.8125 353.601562 584.390625 335.402344 605.804688 315.742188 C 616.148438 306.128906 626.78125 296.8125 636.835938 287.054688 C 646.304688 278.027344 653.585938 267.105469 663.347656 258.367188 C 663.492188 258.222656 663.636719 258.074219 663.785156 257.929688 C 664.949219 258.367188 666.261719 258.511719 667.570312 258.222656 C 667.71875 258.367188 667.863281 258.511719 668.15625 258.65625 C 670.484375 260.261719 672.523438 262.296875 674.5625 264.191406 C 678.933594 268.125 682.867188 272.347656 687.238281 276.277344 C 697 285.160156 708.796875 291.421875 720.015625 298.558594 C 720.890625 301.90625 723.65625 304.820312 728.027344 304.820312 L 729.191406 304.820312 C 725.257812 309.769531 721.617188 315.011719 717.976562 319.964844 Z M 717.976562 319.964844 "/>
<path style=" stroke:none;fill-rule:nonzero;fill:rgb(32.939148%,32.939148%,32.939148%);fill-opacity:1;" d="M 746.238281 309.480469 C 746.089844 309.625 746.238281 309.480469 746.527344 309.1875 C 746.382812 309.1875 746.238281 309.335938 746.238281 309.480469 Z M 746.238281 309.480469 "/>
</g>
</svg>
