<svg version="1" xmlns="http://www.w3.org/2000/svg" width="666.667" height="666.667" viewBox="0 0 500.000000 500.000000"><path d="M244.5 116.2c-2.1 1.1-22.5 14.3-47 30.3-24.4 15.9-52.4 34-54.2 35-.9.5-2.2 1.4-2.7 1.8-.6.5-5.6 3.7-11.1 7.3l-10 6.3-.2-24.2c-.3-23.3-.4-24.3-2.4-26-1.8-1.5-4.3-1.7-18-1.7-14.6 0-16.1.2-17.9 2-1.9 1.9-2 3.4-2 39.2l-.1 37.3L56.3 238c-12.5 8-23.9 15.5-25.5 16.8-3.5 3-4.6 8.3-2.6 12.6C32 275.3 44 291.5 44 288.7c0-.3 1.3-.2 3 .3 1.8.5 3.2.5 3.6-.1.3-.6 1.2-.8 2-.5.8.3 1.4.2 1.4-.3 0-1 10.5-8.1 12-8.1.5 0 1-.4 1-.8 0-.5 1.2-1.5 2.7-2.3 1.6-.8 3-1.6 3.3-1.9.3-.3 1.7-1.3 3.3-2.3L79 271v108.2l2.9 2.9 2.9 2.9h168.5c166 0 168.5 0 170.9-2 1.4-1 2.9-1.6 3.3-1.2.5.4.5.1.1-.6-.4-.6-.3-1.2.1-1.2 1.2 0 1.2 1.9 1.4-54 .1-41.6.4-50.1 1.4-48.6.7.9 1.7 1.7 2.2 1.7.4 0 1.7.7 2.9 1.7 1.1.9 2.6 1.8 3.3 2 .7.1 2.5 1.2 4 2.3 4.1 3 10.2 4.9 12.4 3.8.9-.6 2.3-.7 2.9-.3.6.4.8.3.5-.3-.3-.5.3-1.6 1.4-2.3 1-.8 1.9-2 1.9-2.7 0-.7.5-1.3 1-1.3.6 0 1-.5 1-1.1 0-1.7 3.7-5.9 4.5-5.1.3.4.5.2.4-.3-.4-1.5 1.1-5.6 2-5.1.4.3.8-.3.9-1.2.1-.9.4-3.5.8-5.7.4-3.2.1-4.6-1.5-6.7-1.7-2.1-25.1-17.9-40.4-27.3-1.8-1-10.2-6.5-18.7-12-8.5-5.6-21.8-14.2-29.5-19.2-12.6-8.1-28.8-18.6-47.5-30.8-3.6-2.3-12.1-7.9-19-12.3-6.9-4.5-13-8.6-13.7-9.2-.7-.5-1.4-1-1.7-1-.2 0-3.7-2.2-7.8-4.8-4-2.6-10.9-7.1-15.3-9.9-4.4-2.9-8.4-5.5-9-6-.5-.5-4.2-2.7-8.1-5.1-7.3-4.4-11.9-5.2-15.9-3zm11.3 48c.2.5 1 .8 1.8.8s1.4.4 1.4 1c0 .5.7 1 1.5 1 .9 0 1.8.7 2.1 1.5.4.8 1 1.2 1.5.9.5-.3.9 0 .9.5 0 .6.7 1.1 1.5 1.1.7 0 1.9.8 2.4 1.7.6 1 1.1 1.4 1.1 1 0-.4 2.7 1 5.9 3.3 3.3 2.2 6.4 4 6.8 4 .5 0 1.5.9 2.3 1.9.7 1.1 1.7 1.8 2.1 1.6.4-.3 1.2.2 1.9 1s1.8 1.5 2.5 1.5c.8 0 1.5.3 1.7.7.4 1 6.5 5.3 7.4 5.3.4 0 2.1 1.1 3.8 2.3 1.7 1.3 6.9 4.8 11.6 7.7 4.7 2.9 8.7 5.6 9 5.9.3.3 2.2 1.5 4.3 2.6 2 1.1 3.7 2.2 3.7 2.6 0 .4.9.9 2.1 1.2 1.3.4 1.8 1 1.3 1.8-.4.8-.3 1 .4.5 1.4-.9 23.5 13.8 22.4 14.9-.4.4-.1.5.6.1.8-.5 2.7.3 4.7 1.8 1.8 1.4 3.8 2.6 4.4 2.6.6 0 1.1.3 1.1.8 0 .4 1.4 1.3 3 2 1.7.8 2.8 1.8 2.4 2.3-.3.5-.1.8.4.7.5-.2 3.7 1.4 7.1 3.6l6.1 3.8V345H119l.2-50.3c.3-46.7.4-50.2 2-50.1 1 .1 1.6-.1 1.5-.5-.1-.3.1-.7.5-.9.4-.1 2-1.4 3.5-2.8 1.5-1.3 3.3-2.2 4-2 .7.3 1.2 0 1-.6-.1-.6.7-1.6 1.8-2.2 1.1-.6 3.5-2.1 5.3-3.4 1.7-1.3 3.2-2.1 3.2-1.8 0 .3.9-.3 2-1.4 1.1-1.1 2.5-2 3-2 .6 0 2-.9 3.2-2 1.5-1.4 2.5-1.7 3.4-.9.8.7 1.1.6 1-.5 0-.8.2-1.5.7-1.5.4 0 2-1.2 3.5-2.6 1.5-1.4 3.3-2.3 4-2 .7.2 1.5-.2 1.8-1 .4-.8 2.4-2.5 4.5-3.7 2.1-1.2 3.9-2.6 3.9-3 0-.5.4-.7.9-.4.5.4 1.1.3 1.3-.1.4-1.1 14.6-10.3 15.7-10.3.5 0 1.1-.4 1.3-.8.3-1 14.2-10.2 15.2-10.2.4 0 .4.6 0 1.2-.4.8-.3 1 .2.5s.9-1.3.9-1.8c0-.6 1.4-1.8 3-2.7 1.7-.9 3.2-2 3.5-2.4.3-.3 1.2-.8 2-1 .8-.2 2.3-1.1 3.2-2.1 1-1.1 2.2-1.6 3-1.1.7.4 1 .3.5-.1-.9-1.1 4.3-4.6 5.7-3.8.6.3.8.2.3-.2-.6-.7 10.3-8.5 11.9-8.5.3 0 1-.5 1.7-1 5.9-4.9 6-4.9 9.2-3.2 1.6 1 3.2 2 3.3 2.4z"/></svg>